<svg width="94" height="26" viewBox="0 0 94 26" fill="none" xmlns="http://www.w3.org/2000/svg">
<path d="M0 25.4707V25.2392C2.47839 24.9084 2.83244 24.0483 2.83244 21.0382V4.8626C2.83244 1.62087 2.47839 0.992367 0 0.661577V0.430026H17.1878V3.73791C13.1001 1.95165 10.9435 1.05852 8.56171 1.05852H6.43737V12.0407H7.91797C9.65606 12.0407 13.0357 11.8422 15.4819 11.6768V13C13.0357 12.8015 9.65606 12.6361 7.91797 12.6361H6.43737V24.8422L9.59169 24.8092C12.5207 24.7761 14.9347 23.6514 18.1534 21.8321V25.4707H0Z" fill="white"/>
<path d="M19.8339 25.4707V25.2392C22.3123 24.9084 22.6663 24.0483 22.6663 21.0382V4.8626C22.6663 1.62087 22.3123 0.992367 19.8339 0.661577V0.430026H29.1037V0.661577C26.6253 0.992367 26.2713 1.62087 26.2713 4.8626V24.8422H29.0072C31.9362 24.8422 34.3502 23.6514 37.5689 21.8321V25.4707H19.8339Z" fill="white"/>
<path d="M38.3675 3.14249C37.3375 1.22392 36.8869 0.89313 35.2776 0.661577V0.430026H44.3543V0.661577C42.1012 0.860052 41.7471 1.7201 42.4874 3.24173L47.6051 13.1985L52.5619 3.24173C53.3022 1.75318 53.2057 0.860052 50.856 0.661577V0.430026H56.4887V0.661577C55.169 0.860052 54.4288 1.22392 53.431 3.24173L48.0236 14.0916V21.0382C48.0236 24.0483 48.3776 24.9084 50.856 25.2392V25.4707H41.5218V25.2392C44.0002 24.9084 44.3543 24.0483 44.3543 21.0382V14.1247L38.3675 3.14249Z" fill="white"/>
<path d="M65.6957 26C60.6745 26 56.619 23.1552 56.0396 17.5649H59.4192C59.8055 21.8982 61.7045 25.4046 65.7922 25.4377C68.6247 25.4377 70.5881 23.7506 70.6203 20.8728C70.6203 17.8626 68.2706 16.4402 64.2473 14.0254C60.5136 11.7761 57.3593 9.89059 57.3593 6.15267C57.3593 2.21629 60.578 0 64.7622 0C69.1075 0 72.7446 2.3486 73.6458 6.94657H70.3306C69.9121 3.24173 68.0131 0.59542 64.7622 0.562342C62.0585 0.529263 60.3526 2.11705 60.3205 4.56489C60.3205 7.37659 62.7023 8.83206 66.436 11.0483C70.3949 13.43 73.6136 15.3155 73.6136 19.4173C73.6136 23.5522 70.2662 26 65.6957 26Z" fill="white"/>
<path d="M75.8466 25.4707V25.2392C78.325 24.9084 78.679 24.0483 78.679 21.0382V4.8626C78.679 1.62087 78.325 0.992367 75.8466 0.661577V0.430026H93.0344V3.73791C88.9467 1.95165 86.7901 1.05852 84.4083 1.05852H82.284V12.0407H83.7646C85.5027 12.0407 88.8823 11.8422 91.3285 11.6768V13C88.8823 12.8015 85.5027 12.6361 83.7646 12.6361H82.284V24.8422L85.4383 24.8092C88.3673 24.7761 90.7813 23.6514 94 21.8321V25.4707H75.8466Z" fill="white"/>
</svg>
